<?xml version="1.0" standalone="no"?>
<!DOCTYPE svg PUBLIC "-//W3C//DTD SVG 20010904//EN"
 "http://www.w3.org/TR/2001/REC-SVG-20010904/DTD/svg10.dtd">
<svg version="1.0" xmlns="http://www.w3.org/2000/svg"
 width="300.000000pt" height="300.000000pt" viewBox="0 0 300.000000 300.000000"
 preserveAspectRatio="xMidYMid meet">
<metadata>
Created by potrace 1.11, written by Peter Selinger 2001-2013
</metadata>
<g transform="translate(0.000000,300.000000) scale(0.100000,-0.100000)"
fill="#000000" stroke="none">
<path d="M1570 2754 l0 -97 73 -70 c39 -38 125 -121 190 -184 l117 -115 0 281
0 281 -190 0 -190 0 0 -96z"/>
<path d="M746 1874 l-748 -747 66 -66 c35 -36 82 -85 103 -108 l38 -42 655
655 656 655 642 -641 c353 -352 648 -639 655 -639 6 1 51 43 99 93 l88 92
-748 747 c-412 411 -751 747 -753 747 -3 0 -342 -336 -753 -746z"/>
<path d="M1361 1923 c-86 -94 -246 -266 -265 -284 -18 -17 -19 -41 -20 -521
-2 -355 -5 -511 -14 -530 -18 -43 -80 -106 -115 -117 -123 -40 -243 6 -300
113 -20 38 -21 57 -23 253 -1 116 -4 215 -8 221 -3 5 -22 7 -43 5 -33 -3 -55
-20 -169 -134 l-131 -131 0 -136 c-1 -134 0 -138 30 -197 72 -139 233 -257
396 -291 268 -55 528 49 676 271 l40 60 0 733 c0 402 -2 732 -5 732 -3 0 -25
-21 -49 -47z"/>
<path d="M1577 1963 c-2 -5 -3 -75 -1 -158 1 -82 5 -359 9 -615 12 -828 14
-950 19 -959 3 -4 181 -8 396 -8 l391 0 60 36 c68 41 167 135 209 200 56 83
74 146 74 257 l1 102 -577 576 c-317 317 -579 573 -581 569z m599 -801 c33
-17 85 -81 106 -129 44 -99 56 -307 24 -416 -19 -64 -53 -117 -86 -134 -35
-18 -276 -18 -282 0 -3 10 -3 270 1 613 l1 81 108 -2 c59 0 116 -6 128 -13z"/>
</g>
</svg>
